# xmcd CD database file
#
# Track frame offsets:
#	182
#	28962
#	57657
#	89277
#	121687
#	144715
#	183400
#	212825
#	232582
#	258102
#	290070
#
# Disc length: 3943 seconds
#
# Revision: 3
# Processed by: cddbd v1.5.2PL0 Copyright (c) Steve Scherf et al.
# Submitted via: CDex 1.51
#
DISCID=9f0f650b
DTITLE=Mind Games - pretty fonky
DYEAR=1994
DGENRE=Jazz
TTITLE0=caravan
TTITLE1=los uncoolos
TTITLE2=as everybody sees
TTITLE3=pretty fonky
TTITLE4=trip to your town
TTITLE5=on bleeker street
TTITLE6=can you see the dancing gnomes?
TTITLE7=channel surfer
TTITLE8=murder on heaven seven
TTITLE9=mind spaces
TTITLE10=el uncoolito
EXTD=YEAR: 1994
EXTT0=
EXTT1=
EXTT2=
EXTT3=
EXTT4=
EXTT5=
EXTT6=
EXTT7=
EXTT8=
EXTT9=
EXTT10=
PLAYORDER=
